<svg xmlns="http://www.w3.org/2000/svg" viewBox="0 0 1200 750" role="img" aria-label="Abstract Cambridge scene">
  <rect width="1200" height="750" fill="#f6f0e8"/>
  <circle cx="1020" cy="90" r="210" fill="#cfe4dc"/>
  <circle cx="170" cy="130" r="180" fill="#ead2bd"/>
  <path d="M0 520c160-70 310-70 450 0s300 70 470 0 260-60 280-50v280H0V520Z" fill="#1d5b53" opacity="0.76"/>
  <path d="M120 440h960" stroke="#17120f" stroke-width="10" opacity="0.14"/>
  <path d="M220 440V280h70v160m100 0V230h92v210m115 0V310h68v130m115 0V250h110v190" stroke="#17120f" stroke-width="22" stroke-linecap="round" stroke-linejoin="round" fill="none" opacity="0.72"/>
  <path d="M190 570c130-48 260-48 390 0s265 48 430 0" stroke="#fffaf2" stroke-width="18" stroke-linecap="round" opacity="0.55"/>
</svg>
